<svg version="1.1" id="Layer_1" xmlns="http://www.w3.org/2000/svg" xmlns:xlink="http://www.w3.org/1999/xlink" x="0px" y="0px"
	 width="100%" viewBox="0 0 128 128" enable-background="new 0 0 128 128" xml:space="preserve">
<path fill="#7289DB" opacity="1.000000" stroke="none" 
	d="
M87.000000,0.999999 
	C93.354401,1.000000 99.708794,1.000000 106.187012,1.246593 
	C108.563927,4.620607 107.617111,7.132615 104.990059,9.543466 
	C102.299377,12.012712 99.328506,14.382685 97.372391,17.378597 
	C95.909409,19.619242 94.662949,23.163147 95.391296,25.473898 
	C98.753250,36.140041 107.566917,37.895100 115.579926,29.918734 
	C116.168915,29.332441 116.751633,28.739532 117.351448,28.164490 
	C120.611855,25.038778 123.271385,20.223745 129.000000,24.000000 
	C129.000000,30.021152 129.000000,36.042305 128.740356,42.195518 
	C128.029388,42.785038 127.574898,43.239422 127.127274,43.700459 
	C123.239723,47.704350 119.896858,52.561474 115.318451,55.481701 
	C110.448120,58.588131 104.487144,59.811008 98.298859,59.176331 
	C96.261597,58.967384 93.501663,60.228096 91.953888,61.727150 
	C81.812943,71.548866 72.019173,81.729652 61.850952,91.522079 
	C59.688862,93.604256 59.161961,95.442223 59.574570,98.227036 
	C59.477295,99.937241 59.671848,101.452560 59.969395,103.360031 
	C57.679348,111.920486 55.003651,119.854080 47.023399,124.604866 
	C45.389244,125.577705 44.326263,127.509979 43.000000,129.000000 
	C36.645603,129.000000 30.291204,129.000000 23.812988,128.753418 
	C21.419930,125.365883 22.363737,122.810371 25.032804,120.446854 
	C26.651203,119.013733 27.987627,117.249252 29.661892,115.894623 
	C34.309280,112.134468 36.802830,107.960793 33.387123,102.015945 
	C30.099665,96.294319 23.358248,91.820030 16.929426,97.588921 
	C15.320453,99.032738 13.874110,100.656456 12.328610,102.172615 
	C9.172537,105.268761 6.475240,109.756470 1.000000,106.000000 
	C1.000000,99.978844 1.000000,93.957695 1.182176,87.797401 
	C5.577880,83.311516 9.233967,78.125000 14.161607,74.854050 
	C19.096251,71.578453 25.197662,70.153557 31.581287,70.826416 
	C33.634514,71.042831 36.429722,69.843987 37.974350,68.350365 
	C48.135708,58.524532 57.966503,48.357361 68.098297,38.500076 
	C70.656380,36.011303 71.136993,33.570908 70.803886,30.158413 
	C70.054253,22.478842 72.567047,15.597710 77.701920,9.874767 
	C80.554703,6.695273 83.884949,3.944176 87.000000,0.999999 
z"/>
<path fill="#000000" opacity="1.000000" stroke="none" 
	d="
M86.531342,0.999999 
	C83.884949,3.944176 80.554703,6.695273 77.701920,9.874767 
	C72.567047,15.597710 70.054253,22.478842 70.803886,30.158413 
	C71.136993,33.570908 70.656380,36.011303 68.098297,38.500076 
	C57.966503,48.357361 48.135708,58.524532 37.974350,68.350365 
	C36.429722,69.843987 33.634514,71.042831 31.581287,70.826416 
	C25.197662,70.153557 19.096251,71.578453 14.161607,74.854050 
	C9.233967,78.125000 5.577880,83.311516 1.182176,87.329132 
	C1.000000,58.406425 1.000000,29.812853 1.000000,1.000000 
	C29.353851,1.000000 57.708267,1.000000 86.531342,0.999999 
z"/>
<path fill="#000000" opacity="1.000000" stroke="none" 
	d="
M43.468658,129.000000 
	C44.326263,127.509979 45.389244,125.577705 47.023399,124.604866 
	C55.003651,119.854080 57.679348,111.920486 60.024799,102.951393 
	C59.940277,100.777779 59.903339,99.404961 59.866402,98.032135 
	C59.161961,95.442223 59.688862,93.604256 61.850952,91.522079 
	C72.019173,81.729652 81.812943,71.548866 91.953888,61.727150 
	C93.501663,60.228096 96.261597,58.967384 98.298859,59.176331 
	C104.487144,59.811008 110.448120,58.588131 115.318451,55.481701 
	C119.896858,52.561474 123.239723,47.704350 127.127274,43.700459 
	C127.574898,43.239422 128.029388,42.785038 128.740356,42.663788 
	C129.000000,71.593575 129.000000,100.187157 129.000000,129.000000 
	C100.646149,129.000000 72.291733,129.000000 43.468658,129.000000 
z"/>
<path fill="#000000" opacity="1.000000" stroke="none" 
	d="
M129.000000,23.531263 
	C123.271385,20.223745 120.611855,25.038778 117.351448,28.164490 
	C116.751633,28.739532 116.168915,29.332441 115.579926,29.918734 
	C107.566917,37.895100 98.753250,36.140041 95.391296,25.473898 
	C94.662949,23.163147 95.909409,19.619242 97.372391,17.378597 
	C99.328506,14.382685 102.299377,12.012712 104.990059,9.543466 
	C107.617111,7.132615 108.563927,4.620607 106.655418,1.246593 
	C114.261238,1.000000 121.522484,1.000000 129.000000,1.000000 
	C129.000000,8.352768 129.000000,15.707647 129.000000,23.531263 
z"/>
<path fill="#000000" opacity="1.000000" stroke="none" 
	d="
M1.000000,106.468735 
	C6.475240,109.756470 9.172537,105.268761 12.328610,102.172615 
	C13.874110,100.656456 15.320453,99.032738 16.929426,97.588921 
	C23.358248,91.820030 30.099665,96.294319 33.387123,102.015945 
	C36.802830,107.960793 34.309280,112.134468 29.661892,115.894623 
	C27.987627,117.249252 26.651203,119.013733 25.032804,120.446854 
	C22.363737,122.810371 21.419930,125.365883 23.344585,128.753418 
	C15.738760,129.000000 8.477521,129.000000 1.000000,129.000000 
	C1.000000,121.647232 1.000000,114.292358 1.000000,106.468735 
z"/>
<path fill="#0000FF" opacity="1.000000" stroke="none" 
	d="
M59.574570,98.227036 
	C59.903339,99.404961 59.940277,100.777779 59.921810,102.559235 
	C59.671848,101.452560 59.477295,99.937241 59.574570,98.227036 
z"/>
</svg>